<svg width="856" height="856" viewBox="0 0 856 856" fill="none" xmlns="http://www.w3.org/2000/svg">
<rect width="856" height="856" rx="98" fill="#2C2C2C"/>
<rect width="856" height="856" rx="98" fill="url(#paint0_radial_383_224)" fill-opacity="0.2"/>
<path d="M118.945 472V172.547H188.675L312.734 376.175H275.944L396.581 172.547H466.31L467.166 472H389.308L388.453 291.045H401.714L311.451 442.483H273.805L180.975 291.045H197.231V472H118.945Z" fill="white"/>
<path d="M665.333 289V385.954L718.643 332.934L726.421 325.198L763.89 362.667L638.667 487.89L630.889 480.111L521.222 370.445L513.512 362.735L521.153 354.958L543.087 332.633L550.864 324.716L612 385.852V289H665.333ZM665.333 210.667V279.667H612V210.667H665.333ZM665.333 148V201.333H612V148H665.333Z" fill="#177E2D" stroke="#177E2D" stroke-width="22"/>
<path d="M120.815 642V562.451H136.043L169.908 618.59H161.839L195.136 562.451H210.251L210.478 642H193.204L193.091 588.93H196.273L169.681 633.591H161.385L134.225 588.93H138.088V642H120.815ZM265.603 642V630.068L264.466 627.454V606.089C264.466 602.301 263.292 599.347 260.943 597.225C258.67 595.104 255.148 594.043 250.375 594.043C247.117 594.043 243.897 594.574 240.715 595.634C237.609 596.619 234.957 597.983 232.76 599.726L226.396 587.339C229.73 584.99 233.745 583.172 238.442 581.884C243.14 580.596 247.912 579.952 252.761 579.952C262.08 579.952 269.315 582.149 274.467 586.543C279.618 590.937 282.194 597.794 282.194 607.112V642H265.603ZM246.965 642.909C242.193 642.909 238.101 642.114 234.692 640.523C231.283 638.856 228.669 636.621 226.851 633.818C225.033 631.015 224.124 627.871 224.124 624.386C224.124 620.749 224.995 617.567 226.737 614.84C228.556 612.112 231.397 609.991 235.26 608.476C239.124 606.885 244.162 606.089 250.375 606.089H266.625V616.431H252.307C248.14 616.431 245.261 617.113 243.67 618.476C242.155 619.84 241.397 621.545 241.397 623.59C241.397 625.863 242.268 627.681 244.011 629.045C245.829 630.333 248.291 630.977 251.397 630.977C254.352 630.977 257.004 630.295 259.352 628.931C261.701 627.492 263.406 625.408 264.466 622.681L267.194 630.863C265.906 634.803 263.557 637.795 260.148 639.841C256.739 641.886 252.344 642.909 246.965 642.909ZM298.239 642V580.861H315.171V598.135L312.785 593.134C314.603 588.816 317.52 585.558 321.535 583.361C325.551 581.088 330.437 579.952 336.195 579.952V596.316C335.437 596.241 334.755 596.203 334.149 596.203C333.543 596.127 332.899 596.089 332.218 596.089C327.369 596.089 323.429 597.491 320.399 600.294C317.444 603.021 315.967 607.302 315.967 613.135V642H298.239ZM361.507 629.499L361.961 607.908L390.485 580.861H411.622L384.235 608.703L375.03 616.203L361.507 629.499ZM346.847 642V557.678H364.575V642H346.847ZM392.417 642L371.734 616.317L382.871 602.567L413.895 642H392.417ZM445.566 642.909C439.809 642.909 434.619 641.621 429.998 639.045C425.376 636.394 421.702 632.719 418.974 628.022C416.323 623.325 414.997 617.794 414.997 611.431C414.997 604.991 416.323 599.422 418.974 594.725C421.702 590.028 425.376 586.392 429.998 583.816C434.619 581.24 439.809 579.952 445.566 579.952C450.718 579.952 455.226 581.088 459.09 583.361C462.954 585.634 465.946 589.081 468.067 593.703C470.189 598.324 471.249 604.233 471.249 611.431C471.249 618.552 470.227 624.461 468.181 629.159C466.135 633.78 463.181 637.227 459.317 639.5C455.529 641.773 450.945 642.909 445.566 642.909ZM448.635 628.363C451.514 628.363 454.127 627.681 456.476 626.318C458.825 624.954 460.681 623.022 462.044 620.522C463.484 617.946 464.204 614.916 464.204 611.431C464.204 607.87 463.484 604.839 462.044 602.339C460.681 599.839 458.825 597.907 456.476 596.544C454.127 595.18 451.514 594.498 448.635 594.498C445.68 594.498 443.028 595.18 440.68 596.544C438.331 597.907 436.437 599.839 434.998 602.339C433.634 604.839 432.952 607.87 432.952 611.431C432.952 614.916 433.634 617.946 434.998 620.522C436.437 623.022 438.331 624.954 440.68 626.318C443.028 627.681 445.68 628.363 448.635 628.363ZM464.658 642V629.499L464.999 611.317L463.863 593.248V557.678H481.591V642H464.658ZM527.091 642.909C520.575 642.909 514.779 641.545 509.703 638.818C504.703 636.091 500.726 632.378 497.771 627.681C494.892 622.908 493.453 617.491 493.453 611.431C493.453 605.294 494.892 599.877 497.771 595.18C500.726 590.407 504.703 586.695 509.703 584.043C514.779 581.316 520.575 579.952 527.091 579.952C533.53 579.952 539.288 581.316 544.364 584.043C549.44 586.695 553.417 590.369 556.296 595.066C559.175 599.763 560.615 605.218 560.615 611.431C560.615 617.491 559.175 622.908 556.296 627.681C553.417 632.378 549.44 636.091 544.364 638.818C539.288 641.545 533.53 642.909 527.091 642.909ZM527.091 628.363C530.045 628.363 532.697 627.681 535.045 626.318C537.394 624.954 539.25 623.022 540.614 620.522C541.978 617.946 542.659 614.916 542.659 611.431C542.659 607.87 541.978 604.839 540.614 602.339C539.25 599.839 537.394 597.907 535.045 596.544C532.697 595.18 530.045 594.498 527.091 594.498C524.136 594.498 521.484 595.18 519.136 596.544C516.787 597.907 514.893 599.839 513.454 602.339C512.09 604.839 511.408 607.87 511.408 611.431C511.408 614.916 512.09 617.946 513.454 620.522C514.893 623.022 516.787 624.954 519.136 626.318C521.484 627.681 524.136 628.363 527.091 628.363ZM584.778 642L562.731 580.861H579.436L597.733 633.477H589.778L608.869 580.861H623.87L642.394 633.477H634.439L653.303 580.861H668.986L646.826 642H629.666L613.415 596.885H618.643L601.824 642H584.778ZM714.388 579.952C719.236 579.952 723.555 580.937 727.343 582.907C731.207 584.801 734.237 587.755 736.434 591.771C738.631 595.71 739.73 600.786 739.73 606.999V642H722.002V609.726C722.002 604.802 720.903 601.165 718.706 598.816C716.585 596.468 713.554 595.294 709.615 595.294C706.812 595.294 704.274 595.9 702.001 597.112C699.804 598.248 698.061 600.029 696.773 602.453C695.561 604.877 694.955 607.983 694.955 611.771V642H677.227V580.861H694.16V597.794L690.978 592.68C693.175 588.589 696.319 585.445 700.41 583.248C704.501 581.051 709.16 579.952 714.388 579.952ZM255.657 781L221.338 701.451H241.225L271.226 771.909H259.521L289.977 701.451H308.273L273.84 781H255.657ZM314.664 781V719.861H332.392V781H314.664ZM323.528 711.338C320.27 711.338 317.618 710.391 315.573 708.497C313.527 706.603 312.504 704.254 312.504 701.451C312.504 698.648 313.527 696.3 315.573 694.406C317.618 692.512 320.27 691.565 323.528 691.565C326.785 691.565 329.437 692.474 331.482 694.292C333.528 696.034 334.551 698.307 334.551 701.11C334.551 704.065 333.528 706.527 331.482 708.497C329.513 710.391 326.861 711.338 323.528 711.338ZM379.187 781.909C372.217 781.909 366.08 780.545 360.777 777.818C355.549 775.091 351.496 771.378 348.617 766.681C345.738 761.908 344.299 756.491 344.299 750.431C344.299 744.294 345.701 738.877 348.504 734.18C351.383 729.407 355.284 725.695 360.209 723.043C365.133 720.316 370.702 718.952 376.914 718.952C382.899 718.952 388.278 720.24 393.051 722.816C397.9 725.316 401.726 728.952 404.529 733.725C407.332 738.422 408.733 744.067 408.733 750.658C408.733 751.34 408.696 752.135 408.62 753.044C408.544 753.878 408.468 754.673 408.393 755.431H358.731V745.089H399.074L392.255 748.158C392.255 744.976 391.612 742.211 390.324 739.862C389.036 737.513 387.255 735.695 384.982 734.407C382.71 733.043 380.058 732.362 377.028 732.362C373.997 732.362 371.308 733.043 368.959 734.407C366.686 735.695 364.906 737.551 363.618 739.976C362.33 742.324 361.686 745.127 361.686 748.385V751.112C361.686 754.446 362.406 757.401 363.845 759.976C365.36 762.477 367.444 764.408 370.095 765.772C372.823 767.06 376.005 767.704 379.641 767.704C382.899 767.704 385.74 767.212 388.164 766.227C390.665 765.242 392.937 763.764 394.983 761.795L404.415 772.022C401.612 775.204 398.089 777.667 393.846 779.409C389.604 781.076 384.717 781.909 379.187 781.909ZM433.404 781L411.358 719.861H428.063L446.359 772.477H438.404L457.496 719.861H472.497L491.02 772.477H483.065L501.93 719.861H517.612L495.452 781H478.292L462.042 735.885H467.269L450.45 781H433.404ZM554.531 781.909C547.561 781.909 541.425 780.545 536.121 777.818C530.894 775.091 526.841 771.378 523.962 766.681C521.083 761.908 519.644 756.491 519.644 750.431C519.644 744.294 521.045 738.877 523.848 734.18C526.727 729.407 530.629 725.695 535.553 723.043C540.478 720.316 546.046 718.952 552.258 718.952C558.244 718.952 563.623 720.24 568.396 722.816C573.244 725.316 577.07 728.952 579.873 733.725C582.676 738.422 584.078 744.067 584.078 750.658C584.078 751.34 584.04 752.135 583.964 753.044C583.889 753.878 583.813 754.673 583.737 755.431H534.076V745.089H574.418L567.6 748.158C567.6 744.976 566.956 742.211 565.668 739.862C564.38 737.513 562.6 735.695 560.327 734.407C558.054 733.043 555.403 732.362 552.372 732.362C549.342 732.362 546.652 733.043 544.304 734.407C542.031 735.695 540.25 737.551 538.962 739.976C537.675 742.324 537.031 745.127 537.031 748.385V751.112C537.031 754.446 537.75 757.401 539.19 759.976C540.705 762.477 542.788 764.408 545.44 765.772C548.167 767.06 551.349 767.704 554.986 767.704C558.244 767.704 561.085 767.212 563.509 766.227C566.009 765.242 568.282 763.764 570.327 761.795L579.76 772.022C576.956 775.204 573.434 777.667 569.191 779.409C564.948 781.076 560.062 781.909 554.531 781.909ZM595.881 781V719.861H612.813V737.135L610.427 732.134C612.245 727.816 615.162 724.558 619.177 722.361C623.192 720.088 628.079 718.952 633.837 718.952V735.316C633.079 735.241 632.397 735.203 631.791 735.203C631.185 735.127 630.541 735.089 629.859 735.089C625.011 735.089 621.071 736.491 618.041 739.294C615.086 742.021 613.609 746.302 613.609 752.135V781H595.881Z" fill="#ED5C0E"/>
<defs>
<radialGradient id="paint0_radial_383_224" cx="0" cy="0" r="1" gradientUnits="userSpaceOnUse" gradientTransform="translate(428 53) rotate(90) scale(803)">
<stop offset="0.197115" stop-color="#1D1D1D" stop-opacity="0.665"/>
<stop offset="0.932692" stop-color="#CECECE" stop-opacity="0.665"/>
</radialGradient>
</defs>
</svg>
